<?xml version="1.0" encoding="UTF-8"?>
<svg id="_3" data-name="3" xmlns="http://www.w3.org/2000/svg" xmlns:xlink="http://www.w3.org/1999/xlink" viewBox="0 0 1920 1080">
  <defs>
    <style>
      .cls-1 {
        fill: #ffcb63;
      }

      .cls-2 {
        fill: #ffbe3b;
      }

      .cls-3 {
        fill: url(#radial-gradient);
      }

      .cls-4 {
        fill: #fcb514;
      }
    </style>
    <radialGradient id="radial-gradient" cx="961.86" cy="540.46" fx="961.86" fy="540.46" r="780.15" gradientUnits="userSpaceOnUse">
      <stop offset="0" stop-color="#ffbe3b"/>
      <stop offset="1" stop-color="#fff" stop-opacity="0"/>
    </radialGradient>
  </defs>
  <rect class="cls-3" x="0" width="1923.72" height="1080.91"/>
  <g>
    <g>
      <path class="cls-4" d="M960.03,871.69s-.02-.03-.03-.04c0,.01-.02.03-.03.04h.05Z"/>
      <path class="cls-4" d="M782.08,813.89s0-.03,0-.05c-.01,0-.03.01-.04.02l.04.03Z"/>
      <path class="cls-4" d="M672.1,662.53s.02-.02.03-.04c-.01,0-.03,0-.04-.01l.02.05Z"/>
      <path class="cls-4" d="M672.09,475.44s.03,0,.04-.01c0-.01-.02-.02-.03-.04l-.02.05Z"/>
      <path class="cls-4" d="M782.04,324.07s.03.01.04.02c0-.02,0-.03,0-.05l-.04.03Z"/>
      <path class="cls-4" d="M959.97,266.24s.02.03.03.04c0-.01.02-.03.03-.04h-.05Z"/>
      <path class="cls-4" d="M1137.92,324.04s0,.03,0,.05c.01,0,.03-.01.04-.02l-.04-.03Z"/>
      <path class="cls-4" d="M1247.9,475.39s-.02.02-.03.04c.02,0,.03,0,.04.01l-.02-.05Z"/>
      <path class="cls-4" d="M1211.73,569.86c37.35-21.97,13.04-66.82,36.14-94.43-34.76-8.72-41.12-57.54-83.69-53.7,17.31-39.73-28.72-61.72-26.27-97.64-33.25,13.38-67.08-22.38-99.27,5.75-9.35-42.31-59.52-33.05-78.64-63.55-19.04,30.37-67.43,21.32-76.94,63-32.44-28.74-67.58,8.24-100.98-5.19,2.45,35.76-42.01,56.88-25.21,96.19-43.13-4.18-49.83,46.39-84.74,55.15,23,27.49-.55,70.72,36.14,92.64-37.35,21.97-13.04,66.82-36.14,94.43,34.76,8.72,41.12,57.54,83.69,53.7-17.31,39.73,28.72,61.72,26.27,97.64,33.25-13.38,67.08,22.38,99.27-5.75,9.35,42.31,59.52,33.05,78.64,63.55,19.04-30.37,67.43-21.32,76.94-63,32.43,28.74,67.58-8.24,100.98,5.19-2.45-35.76,42.01-56.88,25.21-96.19,43.13,4.18,49.83-46.39,84.75-55.15-23-27.49.55-70.72-36.14-92.64ZM1157.28,712.29l-121.92,88.58h-150.71l-121.92-88.58-46.57-143.33,46.57-143.33,121.92-88.58h150.71l121.92,88.58,46.57,143.33-46.57,143.33Z"/>
      <path class="cls-4" d="M1247.91,662.49s-.03,0-.04.01c.01.01.02.02.03.04l.02-.05Z"/>
      <path class="cls-4" d="M1137.96,813.86s-.03-.01-.04-.02c0,.02,0,.03,0,.05l.04-.03Z"/>
    </g>
    <circle class="cls-1" cx="960" cy="568.96" r="245.19" transform="translate(-121.14 845.47) rotate(-45)"/>
    <polygon class="cls-2" points="960 805.15 1152.63 427.96 767.37 427.96 960 805.15"/>
  </g>
</svg>