<?xml version="1.0" encoding="UTF-8"?>
<svg id="_2" data-name="2" xmlns="http://www.w3.org/2000/svg" xmlns:xlink="http://www.w3.org/1999/xlink" viewBox="0 0 1920 1080">
  <defs>
    <style>
      .cls-1 {
        fill: #ea680f;
      }

      .cls-2 {
        fill: url(#radial-gradient);
      }

      .cls-3 {
        fill: #ef701b;
      }

      .cls-4 {
        fill: #e55c00;
      }
    </style>
    <radialGradient id="radial-gradient" cx="961.86" cy="540.46" fx="961.86" fy="540.46" r="780.15" gradientUnits="userSpaceOnUse">
      <stop offset="0" stop-color="#ea680f"/>
      <stop offset="1" stop-color="#fff" stop-opacity="0"/>
    </radialGradient>
  </defs>
  <rect class="cls-2" width="1923.72" height="1080.91"/>
  <g>
    <g>
      <path class="cls-4" d="M960.04,897.7s-.03-.04-.04-.06c-.01.02-.03.04-.04.06h.08Z"/>
      <path class="cls-4" d="M675.33,733.37s.02-.04.03-.07c-.03,0-.05,0-.07,0l.04.07Z"/>
      <path class="cls-4" d="M675.29,404.63s.05,0,.07,0c-.01-.02-.02-.04-.03-.07l-.04.07Z"/>
      <path class="cls-4" d="M959.96,240.23s.03.04.04.06c.01-.02.03-.04.04-.06h-.08Z"/>
      <path class="cls-4" d="M1244.67,404.56s-.02.04-.03.07c.03,0,.05,0,.08,0l-.04-.07Z"/>
      <path class="cls-4" d="M1244.71,733.3s-.05,0-.07,0c.01.02.02.04.03.07l.04-.07Z"/>
      <path class="cls-4" d="M1212.83,568.96c53.47-47.65,4.36-112.54,31.81-164.34-58.58-2.13-90.22-77.11-158.22-54.62-14.53-70.13-95.28-60.05-126.41-109.72-31.14,49.67-111.89,39.58-126.41,109.72-68-22.49-99.64,52.49-158.22,54.62,27.45,51.8-21.67,116.69,31.81,164.34-53.47,47.65-4.36,112.53-31.81,164.34,58.58,2.13,90.22,77.11,158.22,54.62,14.53,70.13,95.28,60.05,126.41,109.72,31.14-49.67,111.89-39.58,126.41-109.72,68,22.49,99.64-52.49,158.22-54.62-27.45-51.8,21.67-116.69-31.81-164.34ZM1080.16,777.08h-240.32l-120.16-208.12,120.16-208.12h240.32l120.16,208.12-120.16,208.12Z"/>
    </g>
    <circle class="cls-3" cx="960" cy="568.96" r="245.19"/>
    <circle class="cls-4" cx="960" cy="568.96" r="213.14"/>
    <circle class="cls-1" cx="960" cy="521.06" r="165.23"/>
  </g>
</svg>